<?xml version="1.0" standalone="no"?>
<!DOCTYPE svg PUBLIC "-//W3C//DTD SVG 20010904//EN"
 "http://www.w3.org/TR/2001/REC-SVG-20010904/DTD/svg10.dtd">
<svg version="1.0" xmlns="http://www.w3.org/2000/svg"
 width="500.000000pt" height="500.000000pt" viewBox="0 0 500.000000 500.000000"
 preserveAspectRatio="xMidYMid meet">
<metadata>
Created by potrace 1.14, written by Peter Selinger 2001-2017
</metadata>
<g transform="translate(0.000000,500.000000) scale(0.100000,-0.100000)"
fill="#000000" stroke="none">
<path d="M1411 4964 c-58 -11 -133 -29 -166 -39 -33 -10 -62 -19 -65 -20 -20
-4 -133 -51 -197 -81 -70 -33 -250 -139 -263 -154 -3 -3 -25 -21 -50 -40 -25
-18 -58 -46 -75 -62 -16 -15 -46 -43 -65 -61 -63 -59 -140 -148 -202 -232 -81
-111 -196 -333 -223 -430 -10 -35 -10 -36 -18 -55 -9 -23 -45 -161 -51 -200
-3 -19 -9 -46 -12 -60 -9 -35 -13 -1769 -5 -1817 4 -21 4 -48 1 -59 -4 -10 -6
-22 -3 -26 2 -5 6 -47 8 -95 2 -49 11 -119 20 -158 9 -38 19 -80 21 -92 11
-59 70 -219 116 -313 51 -106 141 -249 207 -329 95 -116 245 -253 360 -331 36
-24 67 -48 69 -52 2 -4 12 -8 22 -8 10 0 20 -4 22 -9 3 -9 206 -110 230 -115
7 -2 20 -6 28 -10 42 -18 173 -55 180 -51 5 3 10 1 12 -4 1 -5 19 -11 38 -14
19 -3 42 -7 50 -11 8 -3 35 -8 60 -11 25 -3 68 -9 95 -13 67 -9 1813 -9 1895
0 36 5 74 10 85 12 186 38 338 79 361 98 7 5 21 10 31 12 11 2 36 12 55 23 20
10 61 30 90 45 57 29 146 81 191 113 125 88 289 244 367 350 25 33 48 62 51
65 9 8 79 120 90 144 5 12 18 36 29 54 11 17 17 32 14 32 -3 0 3 12 14 27 19
28 83 193 86 223 1 9 5 20 9 27 4 6 21 80 39 164 l33 154 2 910 c1 775 -1 924
-14 1005 -8 52 -15 102 -15 110 0 8 -9 49 -20 90 -11 41 -21 82 -23 90 -34
157 -188 447 -324 610 -255 305 -600 511 -996 593 -97 20 -130 20 -1094 22
-979 1 -995 0 -1100 -21z m373 -468 c40 -8 80 -43 93 -81 6 -19 10 -288 9
-755 -1 -399 0 -732 2 -741 3 -15 60 -16 615 -15 l612 1 1 750 c1 770 1 774
38 811 34 34 58 36 355 36 163 1 308 -3 321 -7 41 -12 80 -56 86 -96 4 -20 7
-365 8 -765 l1 -729 183 2 c190 3 200 1 250 -42 48 -41 50 -51 47 -370 -1
-165 -6 -309 -10 -320 -5 -11 -18 -28 -30 -38 -43 -39 -75 -44 -253 -45 -95 0
-176 -3 -180 -7 -4 -4 -8 -337 -9 -741 -1 -495 -5 -745 -12 -766 -6 -19 -27
-44 -48 -58 l-37 -25 -310 0 c-295 0 -312 1 -338 20 -63 46 -61 15 -61 832 0
409 -3 744 -6 744 -26 5 -1205 3 -1213 -2 -7 -5 -11 -246 -12 -750 -2 -818 1
-781 -65 -821 -34 -22 -44 -22 -342 -23 -297 0 -308 1 -336 21 -15 12 -36 34
-45 50 -20 34 -19 3 -18 763 1 299 -1 545 -4 548 -2 2 -1 17 3 31 4 15 5 38 1
52 -3 14 -3 39 1 57 4 18 2 41 -5 54 -11 22 -15 22 -191 24 -99 1 -185 3 -192
3 -25 4 -82 64 -89 95 -4 18 -7 163 -7 323 0 321 0 319 67 367 29 21 42 22
219 23 104 1 190 4 193 7 3 2 5 339 5 748 1 591 3 749 14 769 20 38 47 59 88
67 43 9 553 8 601 -1z"/>
</g>
</svg>
