<?xml version="1.0" standalone="no"?>
<!DOCTYPE svg PUBLIC "-//W3C//DTD SVG 20010904//EN"
 "http://www.w3.org/TR/2001/REC-SVG-20010904/DTD/svg10.dtd">
<svg version="1.0" xmlns="http://www.w3.org/2000/svg"
 width="1000.000000pt" height="1000.000000pt" viewBox="0 0 1000.000000 1000.000000"
 preserveAspectRatio="xMidYMid meet">

<g transform="translate(0.000000,1000.000000) scale(0.100000,-0.100000)"
fill="#000000" stroke="none">
<path d="M4690 9978 c-153 -14 -274 -27 -355 -38 -44 -6 -105 -13 -135 -16
-30 -3 -64 -9 -75 -14 -11 -5 -36 -11 -55 -14 -19 -3 -60 -10 -90 -16 -30 -6
-72 -14 -93 -17 -20 -3 -40 -9 -43 -14 -3 -5 -20 -9 -39 -9 -19 0 -36 -4 -39
-9 -3 -5 -20 -11 -38 -14 -83 -14 -352 -93 -400 -118 -10 -5 -22 -9 -28 -9 -6
0 -32 -9 -58 -21 -26 -12 -56 -24 -67 -29 -11 -4 -32 -12 -47 -19 -16 -6 -38
-15 -50 -20 -28 -10 -117 -50 -140 -62 -10 -5 -25 -9 -33 -9 -8 0 -15 -4 -15
-10 0 -5 -9 -10 -20 -10 -11 0 -20 -4 -20 -10 0 -5 -9 -10 -20 -10 -11 0 -20
-4 -20 -10 0 -5 -9 -10 -19 -10 -11 0 -21 -4 -23 -8 -1 -4 -46 -29 -98 -56
-52 -26 -104 -53 -115 -60 -11 -6 -42 -24 -70 -39 -27 -15 -59 -33 -70 -40
-11 -6 -38 -23 -60 -37 -22 -14 -48 -29 -56 -35 -48 -30 -257 -174 -289 -200
-21 -16 -64 -50 -95 -75 -95 -75 -147 -118 -215 -179 -36 -33 -80 -72 -99 -87
-55 -46 -262 -255 -311 -314 -25 -30 -56 -66 -70 -80 -14 -14 -41 -45 -60 -70
-19 -25 -38 -46 -42 -48 -4 -2 -8 -8 -8 -14 0 -6 -19 -33 -43 -59 -73 -84
-107 -126 -107 -134 0 -5 -7 -17 -17 -27 -9 -10 -21 -27 -27 -37 -27 -47 -81
-121 -88 -121 -5 0 -8 -5 -8 -10 0 -6 -21 -43 -48 -83 -26 -40 -54 -86 -62
-102 -8 -17 -20 -37 -27 -45 -7 -9 -43 -76 -82 -150 -38 -74 -83 -161 -100
-194 -17 -32 -31 -67 -31 -77 0 -10 -3 -19 -7 -19 -9 0 -33 -49 -33 -67 0 -7
-4 -13 -10 -13 -5 0 -10 -7 -10 -15 0 -8 -4 -23 -9 -33 -37 -74 -51 -106 -51
-118 0 -8 -4 -22 -9 -32 -10 -19 -30 -67 -41 -97 -4 -11 -12 -31 -17 -45 -6
-14 -16 -43 -22 -65 -7 -22 -16 -49 -21 -60 -9 -22 -49 -166 -57 -205 -2 -14
-8 -34 -13 -45 -5 -11 -11 -33 -14 -50 -5 -29 -12 -62 -37 -157 -6 -24 -13
-63 -15 -88 -3 -25 -9 -54 -14 -65 -9 -21 -18 -74 -26 -165 -3 -30 -9 -64 -14
-75 -9 -19 -15 -79 -26 -255 -2 -47 -9 -94 -15 -105 -13 -26 -5 -594 11 -725
6 -52 13 -131 16 -175 2 -44 9 -89 14 -100 5 -11 12 -42 15 -70 5 -47 16 -129
30 -220 4 -22 10 -49 15 -60 5 -11 11 -33 14 -50 11 -61 36 -172 55 -235 6
-19 17 -60 25 -90 24 -93 108 -335 119 -347 4 -3 7 -12 7 -20 0 -7 9 -35 21
-61 12 -26 25 -56 29 -67 27 -67 105 -241 122 -270 6 -11 42 -78 79 -150 467
-908 1293 -1702 2249 -2158 514 -246 1020 -390 1620 -463 183 -22 694 -30 899
-15 1091 84 2075 490 2906 1199 144 123 433 416 555 562 653 784 1021 1643
1147 2680 26 209 26 851 0 1060 -58 480 -157 884 -309 1270 -421 1066 -1151
1920 -2139 2503 -168 99 -473 249 -624 307 -11 4 -32 12 -47 19 -16 6 -38 15
-50 20 -13 4 -34 13 -48 19 -14 6 -56 21 -95 33 -38 12 -79 25 -90 30 -43 18
-143 47 -185 54 -25 4 -49 11 -55 15 -5 4 -23 10 -40 14 -16 4 -48 11 -70 17
-65 16 -128 30 -165 35 -19 3 -44 9 -55 14 -11 5 -40 11 -65 14 -25 3 -76 10
-115 16 -38 6 -95 13 -125 16 -30 3 -64 9 -75 14 -11 5 -54 12 -95 14 -41 3
-120 9 -175 15 -120 11 -526 11 -645 -1z m1189 -1177 c57 -11 91 -37 119 -91
l22 -44 0 -728 0 -728 708 0 c389 -1 727 -5 751 -9 54 -11 90 -37 118 -87 l23
-39 -1 -895 c0 -833 -2 -897 -18 -925 -33 -57 -7 -56 -812 -56 -526 1 -746 -3
-756 -10 -11 -10 -13 -354 -13 -1969 l0 -1958 -51 -46 -51 -46 -897 0 -896 0
-39 23 c-48 27 -75 62 -86 113 -6 23 -10 845 -10 1967 l0 1927 -739 0 -738 0
-33 23 c-19 12 -43 38 -54 57 -21 35 -21 45 -21 920 0 867 0 886 20 919 26 44
62 70 111 81 21 5 357 10 746 10 l707 0 3 738 c3 716 4 738 23 771 25 42 62
71 106 81 46 11 1702 11 1758 1z"/>
</g>
</svg>
