<?xml version="1.0" standalone="no"?>
<!DOCTYPE svg PUBLIC "-//W3C//DTD SVG 20010904//EN"
 "http://www.w3.org/TR/2001/REC-SVG-20010904/DTD/svg10.dtd">
<svg version="1.0" xmlns="http://www.w3.org/2000/svg"
 width="500.000000pt" height="500.000000pt" viewBox="0 0 500.000000 500.000000"
 preserveAspectRatio="xMidYMid meet">

<g transform="translate(0.000000,500.000000) scale(0.100000,-0.100000)"
fill="#000000" stroke="none">
<path d="M1556 4989 c-274 -29 -552 -129 -782 -282 -375 -249 -636 -634 -734
-1083 -36 -169 -42 -337 -38 -1229 4 -768 6 -859 22 -945 64 -334 202 -626
409 -861 296 -336 707 -542 1157 -579 153 -13 1673 -13 1820 0 380 33 717 175
998 420 295 258 490 608 568 1020 16 86 18 178 22 955 4 900 -1 1048 -39 1220
-163 749 -777 1294 -1539 1364 -137 13 -1744 13 -1864 0z m285 -528 c47 -47
42 51 43 -866 l1 -690 615 0 615 0 -4 541 c-2 297 0 639 4 759 l7 220 38 37
38 38 319 0 c309 0 321 -1 347 -21 53 -41 51 -12 56 -819 l5 -755 198 -3 197
-2 40 -40 40 -40 0 -318 0 -319 -34 -39 -34 -39 -203 -5 -204 -5 -5 -755 c-5
-807 -3 -778 -56 -819 -26 -20 -38 -21 -347 -21 l-319 0 -38 38 -38 37 -7 210
c-4 116 -5 454 -2 751 4 391 2 545 -6 553 -8 8 -183 11 -608 11 -516 0 -598
-2 -609 -15 -9 -11 -11 -105 -7 -412 3 -219 3 -555 0 -748 l-6 -350 -37 -37
-38 -38 -313 0 c-338 0 -344 1 -383 53 -21 28 -21 36 -26 785 l-5 757 -198 3
-197 2 -40 40 -40 40 0 313 c0 426 -13 407 290 407 l190 0 0 750 c0 829 -3
790 63 830 30 19 52 20 346 20 l313 0 39 -39z"/>
</g>
</svg>
